<mxfile host="app.diagrams.net" agent="Mozilla/5.0 (X11; Linux x86_64) AppleWebKit/537.36 (KHTML, like Gecko) Chrome/130.0.0.0 Safari/537.36" version="25.0.1">
  <diagram name="第 1 页" id="mqjkyJGZI7jAWEz7hjq9">
    <mxGraphModel dx="1434" dy="754" grid="1" gridSize="10" guides="1" tooltips="1" connect="1" arrows="1" fold="1" page="1" pageScale="1" pageWidth="827" pageHeight="1169" math="0" shadow="0">
      <root>
        <mxCell id="0" />
        <mxCell id="1" parent="0" />
        <mxCell id="vBQpwoV6zuL6MPrR1keN-11" value="first complile" style="sketch=0;outlineConnect=0;gradientColor=none;html=1;whiteSpace=wrap;fontSize=12;fontStyle=0;shape=mxgraph.aws4.group;grIcon=mxgraph.aws4.group_availability_zone;strokeColor=#545B64;fillColor=none;verticalAlign=top;align=left;spacingLeft=30;fontColor=#545B64;dashed=1;" vertex="1" parent="1">
          <mxGeometry x="30" y="105" width="340" height="395" as="geometry" />
        </mxCell>
        <mxCell id="vBQpwoV6zuL6MPrR1keN-1" value="arch/x86/kernel/&lt;div&gt;head_32.o&lt;/div&gt;" style="rounded=1;whiteSpace=wrap;html=1;sketch=1;curveFitting=1;jiggle=2;glass=1;shadow=0;" vertex="1" parent="1">
          <mxGeometry x="50" y="140" width="120" height="60" as="geometry" />
        </mxCell>
        <mxCell id="vBQpwoV6zuL6MPrR1keN-2" value="arch/x86/kernel/&lt;div&gt;init_task.o&lt;/div&gt;" style="rounded=1;whiteSpace=wrap;html=1;sketch=1;curveFitting=1;jiggle=2;glass=1;shadow=0;" vertex="1" parent="1">
          <mxGeometry x="50" y="210" width="120" height="60" as="geometry" />
        </mxCell>
        <mxCell id="vBQpwoV6zuL6MPrR1keN-7" value="ld" style="edgeStyle=orthogonalEdgeStyle;rounded=0;orthogonalLoop=1;jettySize=auto;html=1;" edge="1" parent="1" source="vBQpwoV6zuL6MPrR1keN-3" target="vBQpwoV6zuL6MPrR1keN-6">
          <mxGeometry relative="1" as="geometry" />
        </mxCell>
        <mxCell id="vBQpwoV6zuL6MPrR1keN-3" value="init/built-in.o" style="rounded=1;whiteSpace=wrap;html=1;sketch=1;curveFitting=1;jiggle=2;glass=1;shadow=0;" vertex="1" parent="1">
          <mxGeometry x="50" y="280" width="120" height="60" as="geometry" />
        </mxCell>
        <mxCell id="vBQpwoV6zuL6MPrR1keN-4" value="kernel/build-in.o" style="rounded=1;whiteSpace=wrap;html=1;sketch=1;curveFitting=1;jiggle=2;glass=1;shadow=0;" vertex="1" parent="1">
          <mxGeometry x="50" y="350" width="120" height="60" as="geometry" />
        </mxCell>
        <mxCell id="vBQpwoV6zuL6MPrR1keN-5" value="..." style="rounded=1;whiteSpace=wrap;html=1;sketch=1;curveFitting=1;jiggle=2;glass=1;shadow=0;" vertex="1" parent="1">
          <mxGeometry x="50" y="420" width="120" height="60" as="geometry" />
        </mxCell>
        <mxCell id="vBQpwoV6zuL6MPrR1keN-10" value="objcopy" style="edgeStyle=orthogonalEdgeStyle;rounded=0;orthogonalLoop=1;jettySize=auto;html=1;" edge="1" parent="1" source="vBQpwoV6zuL6MPrR1keN-6" target="vBQpwoV6zuL6MPrR1keN-9">
          <mxGeometry relative="1" as="geometry" />
        </mxCell>
        <mxCell id="vBQpwoV6zuL6MPrR1keN-6" value="vmlinux" style="rounded=1;whiteSpace=wrap;html=1;glass=1;sketch=1;curveFitting=1;jiggle=2;" vertex="1" parent="1">
          <mxGeometry x="240" y="200" width="120" height="220" as="geometry" />
        </mxCell>
        <mxCell id="vBQpwoV6zuL6MPrR1keN-13" value="gzip" style="edgeStyle=orthogonalEdgeStyle;rounded=0;orthogonalLoop=1;jettySize=auto;html=1;entryX=0;entryY=0.5;entryDx=0;entryDy=0;" edge="1" parent="1" source="vBQpwoV6zuL6MPrR1keN-9" target="vBQpwoV6zuL6MPrR1keN-12">
          <mxGeometry relative="1" as="geometry" />
        </mxCell>
        <mxCell id="vBQpwoV6zuL6MPrR1keN-9" value="arch/x86/boot/&lt;div&gt;compressed/&lt;/div&gt;&lt;div&gt;vmlinux.bin&lt;/div&gt;" style="rounded=1;whiteSpace=wrap;html=1;glass=1;sketch=1;curveFitting=1;jiggle=2;" vertex="1" parent="1">
          <mxGeometry x="420" y="200" width="120" height="220" as="geometry" />
        </mxCell>
        <mxCell id="vBQpwoV6zuL6MPrR1keN-12" value="piggy.S&lt;div&gt;&lt;br&gt;&lt;/div&gt;&lt;div&gt;&lt;br&gt;&lt;/div&gt;&lt;div&gt;&lt;br&gt;&lt;/div&gt;&lt;div&gt;&lt;br&gt;&lt;/div&gt;&lt;div&gt;&lt;br&gt;&lt;/div&gt;&lt;div&gt;&lt;br&gt;&lt;/div&gt;" style="rounded=1;whiteSpace=wrap;html=1;glass=1;sketch=1;curveFitting=1;jiggle=2;" vertex="1" parent="1">
          <mxGeometry x="590" y="245" width="120" height="130" as="geometry" />
        </mxCell>
        <mxCell id="vBQpwoV6zuL6MPrR1keN-20" value="as" style="edgeStyle=orthogonalEdgeStyle;rounded=0;orthogonalLoop=1;jettySize=auto;html=1;entryX=0;entryY=0.5;entryDx=0;entryDy=0;" edge="1" parent="1" source="vBQpwoV6zuL6MPrR1keN-14" target="vBQpwoV6zuL6MPrR1keN-16">
          <mxGeometry relative="1" as="geometry" />
        </mxCell>
        <mxCell id="vBQpwoV6zuL6MPrR1keN-14" value="vmlinux.bin.gz" style="rounded=1;whiteSpace=wrap;html=1;sketch=1;curveFitting=1;jiggle=2;glass=1;shadow=0;" vertex="1" parent="1">
          <mxGeometry x="595" y="300" width="110" height="60" as="geometry" />
        </mxCell>
        <mxCell id="vBQpwoV6zuL6MPrR1keN-15" value="arch/x86/boot/&lt;div&gt;compressed/&lt;/div&gt;&lt;div&gt;head_32.O...&lt;/div&gt;" style="rounded=1;whiteSpace=wrap;html=1;sketch=1;curveFitting=1;jiggle=2;glass=1;shadow=0;" vertex="1" parent="1">
          <mxGeometry x="750" y="200" width="120" height="60" as="geometry" />
        </mxCell>
        <mxCell id="vBQpwoV6zuL6MPrR1keN-18" value="ld" style="edgeStyle=orthogonalEdgeStyle;rounded=0;orthogonalLoop=1;jettySize=auto;html=1;entryX=0.5;entryY=0;entryDx=0;entryDy=0;" edge="1" parent="1" source="vBQpwoV6zuL6MPrR1keN-16" target="vBQpwoV6zuL6MPrR1keN-17">
          <mxGeometry relative="1" as="geometry" />
        </mxCell>
        <mxCell id="vBQpwoV6zuL6MPrR1keN-16" value="arch/x86/boot/&lt;div&gt;compressed/&lt;/div&gt;&lt;div&gt;piggy.O&lt;/div&gt;" style="rounded=1;whiteSpace=wrap;html=1;sketch=1;curveFitting=1;jiggle=2;glass=1;shadow=0;" vertex="1" parent="1">
          <mxGeometry x="750" y="270" width="120" height="60" as="geometry" />
        </mxCell>
        <mxCell id="vBQpwoV6zuL6MPrR1keN-26" value="objcopy" style="edgeStyle=orthogonalEdgeStyle;rounded=0;orthogonalLoop=1;jettySize=auto;html=1;" edge="1" parent="1" source="vBQpwoV6zuL6MPrR1keN-17" target="vBQpwoV6zuL6MPrR1keN-24">
          <mxGeometry relative="1" as="geometry" />
        </mxCell>
        <mxCell id="vBQpwoV6zuL6MPrR1keN-17" value="arch/x86/boot/&lt;div&gt;compressed/&lt;/div&gt;&lt;div&gt;vmlinux&lt;/div&gt;" style="rounded=1;whiteSpace=wrap;html=1;sketch=1;curveFitting=1;jiggle=2;glass=1;shadow=0;" vertex="1" parent="1">
          <mxGeometry x="750" y="360" width="120" height="60" as="geometry" />
        </mxCell>
        <mxCell id="vBQpwoV6zuL6MPrR1keN-29" style="edgeStyle=orthogonalEdgeStyle;rounded=0;orthogonalLoop=1;jettySize=auto;html=1;exitX=0;exitY=0.5;exitDx=0;exitDy=0;" edge="1" parent="1" source="vBQpwoV6zuL6MPrR1keN-21" target="vBQpwoV6zuL6MPrR1keN-27">
          <mxGeometry relative="1" as="geometry" />
        </mxCell>
        <mxCell id="vBQpwoV6zuL6MPrR1keN-21" value="arch/x86/boot/&lt;div&gt;a20.0&lt;/div&gt;" style="rounded=1;whiteSpace=wrap;html=1;sketch=1;curveFitting=1;jiggle=2;glass=1;shadow=0;" vertex="1" parent="1">
          <mxGeometry x="1110" y="570" width="120" height="60" as="geometry" />
        </mxCell>
        <mxCell id="vBQpwoV6zuL6MPrR1keN-30" value="ld" style="edgeStyle=orthogonalEdgeStyle;rounded=0;orthogonalLoop=1;jettySize=auto;html=1;entryX=1;entryY=0.5;entryDx=0;entryDy=0;" edge="1" parent="1" source="vBQpwoV6zuL6MPrR1keN-22" target="vBQpwoV6zuL6MPrR1keN-27">
          <mxGeometry relative="1" as="geometry" />
        </mxCell>
        <mxCell id="vBQpwoV6zuL6MPrR1keN-22" value="arch/x86/boot/&lt;div&gt;...&lt;/div&gt;" style="rounded=1;whiteSpace=wrap;html=1;sketch=1;curveFitting=1;jiggle=2;glass=1;shadow=0;" vertex="1" parent="1">
          <mxGeometry x="1110" y="640" width="120" height="60" as="geometry" />
        </mxCell>
        <mxCell id="vBQpwoV6zuL6MPrR1keN-32" style="edgeStyle=orthogonalEdgeStyle;rounded=0;orthogonalLoop=1;jettySize=auto;html=1;entryX=1;entryY=0.5;entryDx=0;entryDy=0;" edge="1" parent="1" source="vBQpwoV6zuL6MPrR1keN-24" target="vBQpwoV6zuL6MPrR1keN-31">
          <mxGeometry relative="1" as="geometry">
            <Array as="points">
              <mxPoint x="670" y="515" />
              <mxPoint x="670" y="582" />
            </Array>
          </mxGeometry>
        </mxCell>
        <mxCell id="vBQpwoV6zuL6MPrR1keN-24" value="&lt;div&gt;arch/x86/boot/&lt;/div&gt;&lt;div&gt;vmlinux.bin&lt;/div&gt;" style="rounded=1;whiteSpace=wrap;html=1;glass=1;sketch=1;curveFitting=1;jiggle=2;" vertex="1" parent="1">
          <mxGeometry x="750" y="460" width="120" height="110" as="geometry" />
        </mxCell>
        <mxCell id="vBQpwoV6zuL6MPrR1keN-33" style="edgeStyle=orthogonalEdgeStyle;rounded=0;orthogonalLoop=1;jettySize=auto;html=1;entryX=1;entryY=0.5;entryDx=0;entryDy=0;" edge="1" parent="1" source="vBQpwoV6zuL6MPrR1keN-25" target="vBQpwoV6zuL6MPrR1keN-31">
          <mxGeometry relative="1" as="geometry">
            <Array as="points">
              <mxPoint x="670" y="637" />
              <mxPoint x="670" y="582" />
            </Array>
          </mxGeometry>
        </mxCell>
        <mxCell id="vBQpwoV6zuL6MPrR1keN-34" value="arch/x86.boot&lt;div&gt;tools/build&lt;/div&gt;" style="edgeLabel;html=1;align=center;verticalAlign=middle;resizable=0;points=[];" vertex="1" connectable="0" parent="vBQpwoV6zuL6MPrR1keN-33">
          <mxGeometry x="0.6377" y="-3" relative="1" as="geometry">
            <mxPoint x="22" y="3" as="offset" />
          </mxGeometry>
        </mxCell>
        <mxCell id="vBQpwoV6zuL6MPrR1keN-25" value="&lt;div&gt;arch/x86/boot/&lt;/div&gt;&lt;div&gt;setup.bin&lt;/div&gt;" style="rounded=1;whiteSpace=wrap;html=1;glass=1;sketch=1;curveFitting=1;jiggle=2;" vertex="1" parent="1">
          <mxGeometry x="750" y="582" width="120" height="110" as="geometry" />
        </mxCell>
        <mxCell id="vBQpwoV6zuL6MPrR1keN-28" value="objcopy" style="edgeStyle=orthogonalEdgeStyle;rounded=0;orthogonalLoop=1;jettySize=auto;html=1;entryX=1;entryY=0.5;entryDx=0;entryDy=0;" edge="1" parent="1" source="vBQpwoV6zuL6MPrR1keN-27" target="vBQpwoV6zuL6MPrR1keN-25">
          <mxGeometry relative="1" as="geometry" />
        </mxCell>
        <mxCell id="vBQpwoV6zuL6MPrR1keN-27" value="&lt;div&gt;arch/x86/boot/&lt;/div&gt;&lt;div&gt;setup.elf&lt;/div&gt;" style="rounded=1;whiteSpace=wrap;html=1;glass=1;sketch=1;curveFitting=1;jiggle=2;" vertex="1" parent="1">
          <mxGeometry x="942" y="582" width="120" height="110" as="geometry" />
        </mxCell>
        <mxCell id="vBQpwoV6zuL6MPrR1keN-31" value="arch/x86/boot/&lt;div&gt;bzimage&lt;/div&gt;" style="rounded=1;whiteSpace=wrap;html=1;glass=1;sketch=1;curveFitting=1;jiggle=2;" vertex="1" parent="1">
          <mxGeometry x="420" y="472" width="120" height="220" as="geometry" />
        </mxCell>
      </root>
    </mxGraphModel>
  </diagram>
</mxfile>
